<svg id="logo_mtroc_capitalMetro"
    xmlns="http://www.w3.org/2000/svg" viewBox="0 0 283.46 283.46">
    <title>北京京城地铁有限公司</title>
    <!-- 本图为临摹图 -->
    <!-- SierraQin  2018-02-11 -->
    <path id="path_1" d="M53.13,255.12a24.85,24.85,0,0,1-24.78-24.79V53.13A24.85,24.85,0,0,1,53.13,28.35H206.2v31.1H69.7A10.28,10.28,0,0,0,59.45,69.7V213.76A10.29,10.29,0,0,0,69.7,224h7.56V85.42a8.18,8.18,0,0,1,8.16-8.16H198.05a8.18,8.18,0,0,1,8.15,8.16V224h7.56A10.29,10.29,0,0,0,224,213.76V28.35h6.31a24.85,24.85,0,0,1,24.79,24.78v177.2a24.86,24.86,0,0,1-24.79,24.79H175.1V108.36H157.28V255.12h-31.1V108.36H108.36V255.12Z" style="fill:#e71f19"/>
</svg>