<svg id="logo_bjmtr"
    xmlns="http://www.w3.org/2000/svg" viewBox="0 0 283.46 283.46">
    <title>北京京港地铁有限公司</title>
    <!-- 本图为临摹图 -->
    <!-- SierraQin  2018-02-11 -->
    <path id="path_1" d="M141.73,28.35A113.05,113.05,0,0,1,245.12,187.89H229.27a20.59,20.59,0,0,1-20.48-20.46V115.55a40.87,40.87,0,0,0-41-40.92H50.29a113.49,113.49,0,0,1,91.44-46.28m5.12,66.74h21.22a20.44,20.44,0,0,1,20.48,20.46v52.12a39,39,0,0,0,5.61,20.46H172.94a20.59,20.59,0,0,1-20.48-20.46V115.55a41.4,41.4,0,0,0-5.61-20.46M90,95.09h21.21a20.43,20.43,0,0,1,20.48,20.46v52.12a39.13,39.13,0,0,0,5.61,20.46H115.89A20.6,20.6,0,0,1,95.4,167.67V115.55A36.68,36.68,0,0,0,90,95.09m51.69,160c-62.42,0-113.38-50.91-113.38-113.51a113.68,113.68,0,0,1,10-46.52H54.68a20.43,20.43,0,0,1,20.48,20.46v52.12a40.87,40.87,0,0,0,41,40.92H233.42a114.19,114.19,0,0,1-91.69,46.53" style="fill:#962232"/>
</svg>