<svg id="logo_mtrca"
    xmlns="http://www.w3.org/2000/svg" viewBox="0 0 283.46 283.46">
    <title>北京市轨道交通建设管理有限公司</title>
    <!-- 本图为临摹图 -->
    <!-- SierraQin  2018-02-11 -->
    <path id="path_1" d="M255.12,66.19V217.27H217.47l.23-122.54H101.89L119,66.19ZM28.35,217.27H75.52l64.1-106.82H92.17Z" style="fill:#1a3573"/>
    <path id="path_2" d="M156.36,110.45l-4,6.58H135.68l3.94-6.58Zm-23.42,11.14L129,128.17h16.74l3.94-6.58Zm-6.69,11.14-3.94,6.58H139l4-6.58Zm-6.68,11.14-3.95,6.57h16.74l3.95-6.57ZM112.88,155l-3.94,6.57h16.74l3.94-6.57Zm-6.68,11.13-4,6.58H119l4-6.58Zm-6.68,11.14-4,6.58h16.74l3.94-6.58Zm-6.69,11.14L88.89,195h16.73l3.95-6.58Zm-6.68,11.14-4,6.57H98.94l3.94-6.57ZM79.46,210.7l-3.94,6.57H92.25l4-6.57ZM185.89,117h3.94v-6.59Zm-6.69,11.14h10.63v-6.58h-6.68Zm-2.74,4.56-3.94,6.58h17.31v-6.58Zm-6.68,11.14-3.95,6.57h24v-6.57ZM163.1,155l-3.95,6.57h30.68V155Zm-6.69,11.13-3.95,6.58h37.37v-6.58Zm-6.68,11.14-3.95,6.58h44.05v-6.58ZM143,188.42,139.1,195h50.73v-6.58Zm-6.68,11.14-4,6.57h57.42v-6.57Zm-6.69,11.14-3.94,6.57h64.1V210.7Z" style="fill:#287dba"/>
</svg>