<svg id="logo_bpt"
    xmlns="http://www.w3.org/2000/svg" viewBox="0 0 283.46 283.46">
    <title>北京公共交通控股（集团）有限公司</title>
    <!-- 本图为原图 -->
    <!-- 由其他格式转换为SVG格式 -->
    <path d="M37.48,148.88c-1.44,4.2-2.73,8.46-3.76,12.78-.52,2.16-1,4.33-1.39,6.52a68.13,68.13,0,0,0-1,12.1C31.35,203.92,52.2,223,78,223h2.13c41.77,0,80.58-19.5,112.84-53,6.65-.91,13.3-1.75,19.91-2.87,4.62-.79,9.19-1.79,13.78-2.72l1-.21c-21.13,30.55-56.42,55.27-99.84,69.87-4,1.2-8.07,2.47-12.18,3.39-8.13,1.82-16.47,2.42-24.77,2.87H89.41c-16.25,0-34.81-4.3-46.2-16.69a54.16,54.16,0,0,1-12.89-22.89,59.93,59.93,0,0,1-1.78-20.13,85.69,85.69,0,0,1,2.23-13.95c.55-2.27,1.2-4.52,1.92-6.74a174.65,174.65,0,0,1,7.38-18.26C39.17,144.1,38.3,146.49,37.48,148.88Zm105,22a154.49,154.49,0,0,1-26.25-4.27,125.37,125.37,0,0,1-23.65-9.26,53.11,53.11,0,0,1-13-9A35.52,35.52,0,0,1,68.28,124.9c-.81-14.27,10-25.74,18.4-35.95-2.81,2.4-5.63,4.81-8.31,7.37-.78.74-1.54,1.51-2.31,2.28-1.59,1.59-3.2,3.17-4.76,4.78a163.9,163.9,0,0,0-16.57,19.23c-1.93,2.7-3.74,5.48-5.4,8.35s-3.06,5.52-4.39,8.38c-4.77,10.27-7.91,21.4-7.73,32.75A37,37,0,0,0,41,187.32a33.89,33.89,0,0,0,5.94,8.57,41.76,41.76,0,0,0,4.59,4.23,36.8,36.8,0,0,0,18.82,7.8,82.33,82.33,0,0,0,8.3.5,115.3,115.3,0,0,0,28.46-3.51,111.14,111.14,0,0,0,15.2-4.88c17-6.86,32.22-17.47,46.8-28.52-.35,0-.7,0-1.05,0-5.47,0-10.94.14-16.41-.07C148.57,171.32,145.5,171.14,142.45,170.88ZM185.5,60.67a64.49,64.49,0,0,0-6.42-1.55,72.6,72.6,0,0,0-19.47-.85,112.13,112.13,0,0,0-24.42,5.21c-2.72.87-5.41,1.81-8.07,2.84-3.62,1.39-7.21,2.9-10.7,4.59-2.44,1.19-4.86,2.47-7.21,3.84C101,79.55,93.39,86.11,89,94.67c-2,3.82-.76,9.88,2.85,12.37,8.88,6.11,20.41,7.29,30.92,6.71l5.35-.24c9.7-.44,19.41-2.19,29-3.78a278.64,278.64,0,0,0,33.22-8c6.41-1.89,12.73-4,18.95-6.41l2.33-.91.41-.15a48.52,48.52,0,0,0-3.79-15,26.31,26.31,0,0,0-2-3.6,37.1,37.1,0,0,0-12-11.36A39.51,39.51,0,0,0,185.5,60.67Z" style="fill:#727172"/>
    <path d="M255.12,92.74A116.24,116.24,0,0,1,249.29,125,143.54,143.54,0,0,1,241,144.51l-5.17,1.29c-2.87.72-5.74,1.47-8.61,2.2a290.27,290.27,0,0,1-30.08,6,252.58,252.58,0,0,1-31.57,2.33c-5.34.11-10.69.4-16,.32-4.71-.06-9.41-.37-14.09-.86-15.23-1.6-30.92-4.29-44.29-12.2a43.14,43.14,0,0,1-4.51-3.07c-.92-.73-1.8-1.5-2.65-2.31-1.48-1.42-2.86-2.95-4.22-4.5a22,22,0,0,1-5.64-15.26A23.42,23.42,0,0,1,75,112.3a42,42,0,0,1,5.47-11.68c3.16-4.73,7.09-8.9,10.88-13.14-4.85,7-13.7,17.22-6.47,25.54,7.1,8.16,19.27,10.48,29.52,11.23,4.65.33,9.31.33,14,.31a190.89,190.89,0,0,0,24-1.79c4.47-.57,8.92-1.25,13.37-2,19.64-3.15,38.75-8.72,57.52-15.23,4-1.39,8-2.84,11.94-4.38C241.83,98.6,248.46,95.52,255.12,92.74ZM96.15,81A192.77,192.77,0,0,1,120.7,65.79a131.57,131.57,0,0,1,23.56-9.48,137.41,137.41,0,0,1,15.37-3.55,110.27,110.27,0,0,1,11.73-1.36c11.07-.67,22.57.06,32.91,4.35a43.33,43.33,0,0,1,11.17,7.11,38.38,38.38,0,0,1,7.57,8.7,43.64,43.64,0,0,1,4.65,10.16c.35,1.06.65,2.15.93,3.24.2.74.37,1.5.53,2.25,4.78-2.12,9.52-4.32,14.16-6.71,2.62-1.35,5.23-2.74,7.8-4.17-1.16-2.45-2.26-4.9-3.56-7.28a38.07,38.07,0,0,0-4.23-6.27c-5.7-6.81-13.34-11.7-21.5-15.06a60,60,0,0,0-7-2.37,70.05,70.05,0,0,0-18.12-2.28c-20.22-.1-40.26,4.66-58.87,12.42A191.48,191.48,0,0,0,112.6,68.33C106.68,71.92,100.79,75.86,96.15,81Z" style="fill:#cb1d1c"/>
</svg>