<?xml version="1.0" encoding="UTF-8"?>
<svg xmlns="http://www.w3.org/2000/svg" xmlns:xlink="http://www.w3.org/1999/xlink" width="252pt" height="252pt" viewBox="0 0 252 252" version="1.1">
<g id="surface1">
<path style=" stroke:none;fill-rule:nonzero;fill:rgb(0%,30.588235%,63.529412%);fill-opacity:1;" d="M 112.542969 250.449219 C 89.761719 247.765625 69.199219 239.507812 50.445312 225.507812 C 44.328125 220.941406 33.367188 210.21875 28.421875 203.957031 C 16.835938 189.296875 9.070312 173.089844 4.277344 153.558594 C 1.117188 140.695312 -0.0078125 129.453125 0.78125 118.582031 C 1.5 108.613281 5.054688 93.140625 9.25 81.664062 C 13.125 71.078125 21.269531 56.796875 28.710938 47.535156 C 32.363281 42.988281 40.320312 34.8125 44.894531 30.90625 C 69.695312 9.726562 100.832031 -0.898438 133.015625 0.832031 C 160.871094 2.335938 185.71875 12.046875 206.597656 29.589844 C 226.472656 46.289062 241.671875 69.269531 247.132812 90.863281 C 247.828125 93.613281 248.316406 95.941406 248.21875 96.035156 C 248.121094 96.128906 241.582031 96.269531 233.6875 96.347656 L 219.335938 96.492188 L 217.953125 92.925781 C 210.921875 74.777344 195.050781 55.714844 176.734375 43.410156 C 168.324219 37.765625 160.503906 34.285156 152.765625 32.75 C 130.464844 28.328125 109.4375 29.871094 91.910156 37.214844 C 65.363281 48.335938 43.113281 73.09375 35.164062 100.351562 C 32.847656 108.300781 32.300781 112.726562 32.316406 123.308594 C 32.339844 136.777344 33.765625 145.523438 38.046875 158.433594 C 43.238281 174.082031 49.351562 183.886719 60.996094 195.230469 C 74.03125 207.929688 90.636719 217.628906 104.015625 220.363281 C 119.292969 223.488281 144.390625 220.664062 165.46875 213.449219 C 185.417969 206.625 202.121094 191.675781 213.492188 170.480469 C 215.683594 166.394531 220.601562 154.738281 220.609375 153.617188 C 220.613281 153.144531 219.820312 153.09375 216.042969 153.308594 C 213.53125 153.453125 205.398438 153.574219 197.972656 153.574219 L 184.46875 153.578125 L 184.289062 154.492188 C 184.1875 154.992188 183.800781 157.050781 183.429688 159.0625 C 182.351562 164.890625 180.582031 169.800781 177.011719 176.859375 L 173.679688 183.4375 L 124.015625 183.542969 L 74.351562 183.644531 L 74.351562 67.851562 L 173.40625 67.851562 L 175.523438 71.148438 C 181.695312 80.769531 185.0625 93.238281 186.472656 111.707031 C 186.703125 114.714844 186.890625 119.148438 186.890625 121.5625 L 186.890625 125.949219 L 251.085938 125.949219 L 251.085938 128.523438 C 251.085938 132.40625 249.988281 143.03125 249.050781 148.21875 C 243.527344 178.824219 228.59375 204.945312 206.394531 222.839844 C 187.046875 238.429688 164.824219 247.757812 140.558594 250.46875 C 133.796875 251.222656 119.03125 251.210938 112.542969 250.449219 Z M 150.546875 158.554688 C 152.246094 156.765625 154.761719 152.925781 156.152344 149.992188 C 157.316406 147.535156 157.4375 146.914062 157.4375 143.390625 C 157.4375 139.628906 157.378906 139.386719 155.722656 136.074219 C 154.777344 134.191406 153.003906 131.480469 151.777344 130.050781 L 149.546875 127.445312 L 150.851562 125.851562 C 153.332031 122.8125 154.070312 121.667969 155.640625 118.433594 C 159.496094 110.496094 158.0625 102.488281 151.65625 96.191406 L 149.699219 94.265625 L 125.632812 93.996094 L 101.566406 93.722656 L 101.671875 126.394531 L 101.773438 159.0625 L 125.542969 159.269531 C 138.617188 159.382812 149.347656 159.519531 149.394531 159.574219 C 149.441406 159.628906 149.960938 159.167969 150.546875 158.554688 Z M 150.546875 158.554688 "/>
</g>
</svg>
