<svg id="logo_bcr"
    xmlns="http://www.w3.org/2000/svg" viewBox="0 0 283.46 283.46">
    <title>北京城市铁路投资发展有限公司</title>
    <!-- 本图为临摹图 -->
    <!-- SierraQin  2018-02-14 -->
    <path id="path_1" d="M90.24,151.19l-2-.88a160.47,160.47,0,0,1-21.13-11.78C51.36,128.19,43,119,41,116.78a49.93,49.93,0,0,1-7.61-10.55c-1.39-2.65-4.88-9.35-4.83-17,.08-9.86,6-17.09,8.61-20.3,23-28.21,90.25-36.3,90.25-36.3a612.11,612.11,0,0,1,127.37-1.77q-9.56,21.33-19.09,42.68c-18.31-3.23-34-5.07-46.08-6.18-31.37-2.87-49.69-1.85-55.37-1.47a194.29,194.29,0,0,0-27.9,3.79c-12.66,2.68-19.77,5.54-23.14,7S70,82.56,63.37,89.87a27,27,0,0,0-4.93,7.44,24.34,24.34,0,0,0-2,7.84,24,24,0,0,0,1,8.84,32.44,32.44,0,0,0,4.84,9.7,63.09,63.09,0,0,0,10.77,11.92,121.34,121.34,0,0,0,17.16,12.57V90.51h65.82a47.12,47.12,0,0,1,11.36,1.35c3.39.83,6.7,1.63,10.2,3.86A24.51,24.51,0,0,1,188,108.88c.45,1.43,2.88,9.58-1.29,17.52-.5.95-1.61,2.58-1.61,2.58,3.21,1.19,6.61,2.56,10.15,4.17a161.77,161.77,0,0,1,21.13,11.79c15.77,10.34,24.14,19.49,26.15,21.75a49.91,49.91,0,0,1,7.61,10.54c1.39,2.66,4.89,9.36,4.83,17-.07,9.86-6,17.09-8.6,20.3-23,28.2-90.26,36.29-90.26,36.29A611.21,611.21,0,0,1,28.7,252.64L47.78,210c18.31,3.24,34,5.08,46.09,6.18,31.36,2.88,49.68,1.85,55.36,1.48a193.93,193.93,0,0,0,27.9-3.79c12.67-2.68,19.78-5.54,23.14-7s13.2-5.91,19.83-13.23a27.18,27.18,0,0,0,4.92-7.43,24.88,24.88,0,0,0,2-7.84,24.19,24.19,0,0,0-1-8.84,33,33,0,0,0-4.84-9.71,63.88,63.88,0,0,0-10.78-11.91,120.9,120.9,0,0,0-18.27-13.25c-2.28-1.37-4.94-2.88-8-4.45,0,0-3.31,3.27-4.49,4.19a29.49,29.49,0,0,1-8.89,4.75,24.82,24.82,0,0,1,8.46,2.17,24.31,24.31,0,0,1,9.2,7.26c6.32,8.35,4.44,18.5,3.93,21.28a26,26,0,0,1-6.6,13.89,27.26,27.26,0,0,1-12,7,48.09,48.09,0,0,1-8.52,1.59,79.78,79.78,0,0,1-9.16.65H90.24ZM147.57,132c1.36-5,6.61-7.58,14-8.94v-9.73c0-4.86-3.69-8.17-9.72-8.36H131.62c-6,.19-9.73,3.5-9.73,8.36v9.73c7.39,1.36,12.65,3.89,14,8.94v26a10,10,0,0,1-1.31,4.44c-.49.83-2.11,3.26-10.63,5.79a78.55,78.55,0,0,1-19.71,2.94h0v7.26h75v-7.26h0a78.43,78.43,0,0,1-19.7-2.94c-8.53-2.53-10.14-5-10.64-5.79a9.86,9.86,0,0,1-1.3-4.44Z" style="fill:#2956a5"/>
</svg>