<?xml version="1.0" encoding="utf-8"?>
<!-- Generator: Adobe Illustrator 23.0.2, SVG Export Plug-In . SVG Version: 6.00 Build 0)  -->
<svg version="1.1" id="图层_1" xmlns="http://www.w3.org/2000/svg" xmlns:xlink="http://www.w3.org/1999/xlink" x="0px" y="0px"
	 viewBox="0 0 102.1 100" style="enable-background:new 0 0 102.1 100;" xml:space="preserve">
<style type="text/css">
	.st0{fill:#FC0204;}
	.st1{fill:#14027C;}
</style>
<g>
	<path class="st0" d="M91.1,0L91.1,0h-8.6H74c-7.7,19.4-15.3,38.8-23,58.2C43.4,38.8,35.7,19.4,28,0h-8.5H11h0H0v0.1v10.5v14.7v48v0
		c3.3,0,6.6,0,10,0h8.2V28c7.5,15.2,15.1,30.4,22.6,45.6c3.4,0,6.8,0,10.3,0c3.4,0,6.8,0,10.3,0C68.8,58.4,76.4,43.2,83.9,28v45.2
		h8.2c3.3,0,6.6,0,10,0v0v-48V10.5V0.1V0H91.1z"/>
	<g>
		<path class="st1" d="M0,100h26.8c0-2.8,0-5.6,0-8.5c-8.9,0-17.8,0-26.8,0V100z"/>
		<path class="st1" d="M37.4,91.5c0,2.8,0,5.6,0,8.5H51h13.6c0-2.8,0-5.6,0-8.5c-4.5,0-9.1,0-13.6,0C46.5,91.5,42,91.5,37.4,91.5z"
			/>
		<path class="st1" d="M75.3,100h26.8v-8.5c-8.9,0-17.8,0-26.8,0C75.3,94.4,75.3,97.2,75.3,100z"/>
		<path class="st1" d="M83.9,76.7v9.4c-7.5-3.1-15-6.3-22.4-9.4c-0.4-0.1-0.8-0.1-1.2-0.1H51h-9.3c-0.4,0-0.8-0.1-1.2,0.1
			c-7.5,3.1-15,6.3-22.4,9.4v-9.4H0v0v10.2v1.6v0.9v0h28l0.1-0.1l0,0c0,0,0.1,0,0.1,0c1.2-0.6,2.3-1.2,3.5-1.7
			c6.4-3.2,12.9-6.4,19.3-9.6c0,0,0,0,0,0c0,0,0,0,0,0c6.4,3.2,12.9,6.4,19.3,9.6c1.2,0.6,2.3,1.2,3.5,1.7c0,0,0.1,0,0.1,0l0,0
			l0.1,0.1h28v0v-0.9v-1.6V76.7v0H83.9z"/>
	</g>
</g>
</svg>
