<?xml version="1.0" encoding="UTF-8" standalone="no"?>
<!DOCTYPE svg PUBLIC "-//W3C//DTD SVG 1.1//EN" "http://www.w3.org/Graphics/SVG/1.1/DTD/svg11.dtd">
<!-- Generated by Microsoft Visio, SVG Export rfwbbsWlogo.svg Page-1 -->
<svg xmlns="http://www.w3.org/2000/svg" xmlns:xlink="http://www.w3.org/1999/xlink" xmlns:ev="http://www.w3.org/2001/xml-events" xmlns:v="http://schemas.microsoft.com/visio/2003/SVGExtensions/" width="9.12702in" height="7.78675in" viewBox="0 0 657.146 560.646" xml:space="preserve" color-interpolation-filters="sRGB" class="st2">
	

	<style type="text/css">
	<![CDATA[
		.st1 {fill:#15a3ff;stroke:none;stroke-width:0.25}
		.st2 {fill:none;fill-rule:evenodd;font-size:12px;overflow:visible;stroke-linecap:square;stroke-miterlimit:3}
	]]>
	</style>

	<g v:mID="0" v:index="1" v:groupContext="foregroundPage">
		
		
		<g id="shape2-1" v:mID="2" v:groupContext="shape" transform="translate(0.25,-0.25)">
			
			<path d="M498.36 368.16 L519.65 368.16 A1.91462 1.91462 -180 0 0 521.49 365.72 L512.84 335.38 A1.91462 1.91462 -180 0        0 511 333.99 L489.6 333.99 A1.91462 1.91462 -180 0 0 487.76 336.44 L496.53 366.78 A1.91462 1.91462 -180        0 0 498.36 368.16 ZM457.43 560.65 L552.54 560.65 L497.32 369.55 A1.91462 1.91462 -180 0 0 495.48 368.17        L418.1 368.17 A1.91462 1.91462 -180 0 0 416.23 370.49 L457.43 560.65 ZM421.79 108.12 L391.42 3.01 A1.91462        1.91462 -180 0 0 391.05 2.32 L391.35 2.21 L390.95 2.21 A1.91462 1.91462 -180 0 0 389.58 1.63 L336.59 1.63        A1.91462 1.91462 -180 0 0 336.01 1.72 A520.801 499.701 -30.48 0 0 334.18 2.3 A318.453 318.453 -180 0 0 204.37        62.29 A1.91462 1.91462 0 0 1 203.61 60.32 L216.07 2.82 A1.91462 1.91462 -180 0 0 214.2 0.5 L163.29 0.5 A1.91462        1.91462 -180 0 0 161.45 1.88 L0 560.65 L95.19 560.65 L177.49 180.86 A415.026 415.026 0 0 1 341.17 24.61        A1.91462 1.91462 0 0 1 341.39 25.17 L360.25 112.17 L360.32 112.15 L368.26 149.19 L368.88 152.08 L368.89        152.07 L407.99 332.49 A1.91462 1.91462 -180 0 0 409.86 333.99 L484.51 333.99 A1.91462 1.91462 -180 0 0 486.34        331.55 L442.8 180.83 A415.026 415.026 0 0 1 656.65 2.21 L600.77 2.03 A318.453 318.453 -180 0 0 421.79 108.12        ZM415.22 365.85 L408.64 335.5 A1.91462 1.91462 -180 0 0 406.77 333.99 L166.45 333.99 A1.91462 1.91462 -180        0 0 164.74 335.05 L149.55 365.43 A1.91462 1.91462 -180 0 0 151.26 368.2 L413.35 368.17 A1.91462 1.91462        -180 0 0 415.22 365.85 Z" class="st1"/>
		</g>
	</g>
</svg>
