<?xml version="1.0" encoding="utf-8"?>
<!-- Generator: Adobe Illustrator 18.0.0, SVG Export Plug-In . SVG Version: 6.00 Build 0)  -->
<!DOCTYPE svg PUBLIC "-//W3C//DTD SVG 1.1//EN" "http://www.w3.org/Graphics/SVG/1.1/DTD/svg11.dtd">
<svg version="1.1" id="Layer_1" xmlns="http://www.w3.org/2000/svg" xmlns:xlink="http://www.w3.org/1999/xlink" x="0px" y="0px"
	 viewBox="0 0 390.6 312.5" enable-background="new 0 0 390.6 312.5" xml:space="preserve">
<path fill="#022A78" d="M196,105.8c0.3-1.8,1.7-2.6,2.8-3.7c35-31.5,70-63,105-94.5c5.3-4.9,12.2-7.5,19.4-7.5
	c11.6-0.1,23.3,0,34.9,0c18.8,0,32.2,13.2,32.4,32.1c0.1,14.8,0,29.7,0,44.5c0,67.5,0,135,0,202.5c0,16.5-9.3,29-24.2,32.6
	c-0.7,0.2-1.4,0.4-2.1,0.4c-17,0.1-34,0.1-51,0.1c-0.4-0.1-0.8-0.4-1.1-0.7c0.1-32.2,0.1-64.5,0.2-96.7c0-1.6-0.2-3.2-0.3-4.8
	c0.1-0.6,0.1-1.2,0.2-1.7c0-34.6,0-69.2,0-103.8c0.1-0.8-0.5-1.4-1.2-1.5l-58.9,53.2c-9.3-6.2-16.4-14.8-24.9-21.9
	C216.4,125.4,206.4,115.4,196,105.8z"/>
<path fill="#022A78" d="M78.6,311.7c-1.4,1.2-3.1,0.7-4.6,0.7c-14,0-27.9,0-41.9,0c-18.6,0-32-13.5-32.1-32.3C0,246,0,212,0,178
	c0-48.2,0-96.5,0-144.8C0,13.3,13.2,0.1,33,0c11.3,0,22.7,0,34,0c7.2-0.2,14.2,2.4,19.5,7.3c35.4,31.9,70.8,63.8,106.2,95.7
	c0.9,0.7,1.7,1.6,2,2.7c-18.4,17.3-37.1,34.1-56.2,50.5l-60.2-54.4c0,2.6,0,3.9,0,5.1c0,21.4,0,42.7,0,64.1
	c0,11.9,0.1,23.8,0.2,35.8v3.3c0,15.7-0.1,31.3-0.1,47C78.4,275.4,78.5,293.5,78.6,311.7z"/>
<path fill="#D50C30" d="M192.3,209.7c2.3-2.3,3.7-2,6,0.1c31.1,28.1,62.2,56.2,93.5,84.2c6.7,6,12.9,12.4,20.3,17.6
	c0.1-32.2,0.1-64.5,0.2-96.7c0-1.6-0.2-3.2-0.3-4.8c-12.6-11.2-25.2-22.5-37.9-33.8c-7.4-6.7-14.8-13.4-22.1-20.1
	c-9.3-6.2-16.4-14.8-24.9-21.9c-10.8-9-20.8-19-31.2-28.6h-1.2c-18.4,17.2-37.2,34-56.2,50.5l-46.8,42c-2.4,2.8-5.1,5.3-8.2,7.3v0.3
	l-0.2,0.1c0.1,0.2,0,0.5-0.2,0.6c-0.1,0-0.2,0-0.3,0l-0.1,0.2h-0.3c-0.8,1.5-2.2,2.8-3.8,3.4c0,15.7-0.1,31.3-0.1,47
	c0,18.1,0.1,36.3,0.2,54.4c1.7-1.3,3.4-2.6,5.1-4L192.3,209.7z"/>
</svg>
