<?xml version="1.0" encoding="UTF-8" standalone="no"?>
<svg
   xmlns:dc="http://purl.org/dc/elements/1.1/"
   xmlns:cc="http://creativecommons.org/ns#"
   xmlns:rdf="http://www.w3.org/1999/02/22-rdf-syntax-ns#"
   xmlns:svg="http://www.w3.org/2000/svg"
   xmlns="http://www.w3.org/2000/svg"
   xmlns:sodipodi="http://sodipodi.sourceforge.net/DTD/sodipodi-0.dtd"
   xmlns:inkscape="http://www.inkscape.org/namespaces/inkscape"
   width="476.04257"
   height="126.83247"
   viewBox="0 0 797.0763 207.4723"
   version="1.0"
   id="svg2"
   sodipodi:version="0.32"
   inkscape:version="0.48.2 r9819"
   sodipodi:docname="Chengdu_Metro_logo.svg"
   inkscape:output_extension="org.inkscape.output.svg.inkscape">
  <metadata
     id="metadata43">
    <rdf:RDF>
      <cc:Work
         rdf:about="">
        <dc:format>image/svg+xml</dc:format>
        <dc:type
           rdf:resource="http://purl.org/dc/dcmitype/StillImage" />
      </cc:Work>
    </rdf:RDF>
  </metadata>
  <defs
     id="defs41">
    <inkscape:perspective
       sodipodi:type="inkscape:persp3d"
       inkscape:vp_x="0 : 193.75 : 1"
       inkscape:vp_y="0 : 1000 : 0"
       inkscape:vp_z="997.5 : 193.75 : 1"
       inkscape:persp3d-origin="498.75 : 129.16667 : 1"
       id="perspective45" />
  </defs>
  <sodipodi:namedview
     inkscape:window-height="1018"
     inkscape:window-width="1916"
     inkscape:pageshadow="2"
     inkscape:pageopacity="0.0"
     guidetolerance="10.0"
     gridtolerance="10.0"
     objecttolerance="10.0"
     borderopacity="1.0"
     bordercolor="#666666"
     pagecolor="#ffffff"
     id="base"
     showgrid="false"
     inkscape:zoom="1.422807"
     inkscape:cx="549"
     inkscape:cy="85.322521"
     inkscape:window-x="0"
     inkscape:window-y="24"
     inkscape:current-layer="#0067acff"
     fit-margin-top="0"
     fit-margin-left="0"
     fit-margin-right="0"
     fit-margin-bottom="0"
     inkscape:window-maximized="0" />
  <g
     id="#ffffffff"
     transform="translate(-0.9236951,-3.8600746)" />
  <g
     id="#0067acff"
     transform="translate(-0.9236951,-3.8600746)">
    <path
       d="m 102.98,37.86 c 27.15,-17.09 56.84,-31.71 88.97,-36 9.35,-0.66 18.69,-2.12 28.09,-1.51 6.61,1.22 13.38,0.99 20,2.13 38,5.19 73.56,20.24 110.08,31.16 -3.67,0.68 -7.41,0.62 -11.12,0.76 -26.56,1.51 -53.2,5.96 -78.05,15.71 -38.13,14.11 -72.63,40.59 -92.24,76.65 -7.03,13.21 -12.27,28.01 -11.43,43.18 0.28,9.45 4.64,18.75 11.93,24.81 9.82,8.42 22.36,12.85 34.83,15.57 3.97,0.95 8.14,0.83 12,2.25 -36.23,-0.31 -72.52,0.51 -108.65,-2.72 C 89.15,208.31 70.87,206.09 53.14,201.37 37.95,197.13 22.95,190.55 11.23,179.76 6.03,174.8 1.45,168.37 0.99,160.98 1.23,155.68 0.23,150.23 2.02,145.09 7.4,126.41 19.67,110.72 32.48,96.48 53.11,73.79 77.27,54.5 102.98,37.86 z"
       id="path6"
       style="fill:#0067ac"
       inkscape:connector-curvature="0" />
    <path
       d="m 522.42,99.48 c 2.92,0.71 5.7,1.93 8.49,3.08 -4.37,-0.56 -8.65,-1.66 -12.98,-2.41 1.49,-0.22 2.98,-0.48 4.49,-0.67 z"
       id="path8"
       style="fill:#0067ac"
       inkscape:connector-curvature="0" />
  </g>
  <g
     id="#0181caff"
     transform="translate(-0.9236951,-3.8600746)">
    <path
       d="m 236.03,67.1 c 36.55,-20.71 78.85,-31.56 120.88,-29.95 6.96,0.92 13.3,4.16 20.03,5.97 10.73,3.84 21.46,7.68 32.12,11.74 2.24,0.77 10.4,4.03 12.3,4.79 19.9,7.65 39.59,15.81 59.43,23.6 13.71,5.83 28.05,10.11 41.63,16.23 4.90774,1.74859 15.70313,4.94241 8.89557,3.14541 C 531.27416,102.63036 514.73,100.04 513.18,99.74 477.27,92.83 441.11,86.19 404.48,84.95 c -9.49,-0.75 -19.01,-0.76 -28.52,-0.83 -12.65,-1.17 -25.32,0.31 -37.98,0.09 -17.41,0.83 -34.89,1.64 -52.04,5.02 -32.99,6.12 -66.23,17.4 -92.02,39.58 -12.11,10.57 -22.44,23.5 -28.29,38.59 l -1.3,0.79 c -0.35,-15.6 4.79,-30.84 12.55,-44.22 13.41,-24.41 35.38,-42.96 59.15,-56.87 z"
       id="path35"
       sodipodi:nodetypes="cccccccccccccccccc"
       style="fill:#0181ca"
       inkscape:connector-curvature="0" />
  </g>
  <g
     id="#50aee3ff"
     transform="translate(-0.9236951,-3.8600746)">
    <path
       d="m 313.04,90.8 c 31.18,-3.57 62.67,-3.93 93.95,-1.8 42.22,2.93 84.29,8.16 125.92,15.75 2.51,0.43 5.01,0.98 7.4,1.91 79.13,32.52 159.41,62.99 242.59,83.51 5,1.22 9.96,2.68 15.1,3.21 l 0,0.43 c -25.48,-0.01 -50.81,-3.2 -76.06,-6.35 -90.14,-12.56 -178.28,-35.74 -266.77,-56.47 -36.48,-8.52 -72.99,-17.12 -109.96,-23.26 -13.69,-1.78 -27.37,-3.99 -41.19,-4.45 -18.99,-1.6 -38.24,-0.28 -56.83,3.9 -4.49,0.88 -8.65,2.88 -13.13,3.77 24.9,-11.28 51.92,-17.11 78.98,-20.15 z"
       id="path38"
       style="fill:#50aee3"
       inkscape:connector-curvature="0" />
  </g>
</svg>
