<?xml version="1.0" encoding="UTF-8"?>
<svg xmlns="http://www.w3.org/2000/svg" xmlns:xlink="http://www.w3.org/1999/xlink" width="136pt" height="136pt" viewBox="0 0 136 136" version="1.1">
<g id="surface1">
<path style=" stroke:none;fill-rule:nonzero;fill:rgb(99.607843%,0%,0%);fill-opacity:1;" d="M 25.230469 17.976562 C 36.375 8.210938 50.789062 2.191406 65.617188 1.53125 C 76.640625 0.964844 87.890625 3.128906 97.816406 8.019531 C 115.84375 16.71875 129.480469 33.839844 134.140625 53.285156 C 134.835938 55.042969 133.15625 56.75 131.414062 56.582031 C 126.070312 56.648438 120.710938 56.652344 115.367188 56.558594 C 113.730469 56.582031 113.148438 54.832031 112.714844 53.574219 C 108.773438 41.550781 99.539062 31.433594 88.039062 26.234375 C 71.78125 18.710938 51.265625 21.878906 38.183594 34.171875 C 30.671875 40.964844 25.5625 50.339844 23.738281 60.289062 C 23.230469 61.765625 24.332031 63.671875 25.972656 63.652344 C 27.875 63.78125 29.808594 63.863281 31.699219 63.542969 C 33.308594 62.367188 34.472656 60.707031 35.789062 59.230469 C 40.738281 53.523438 45.597656 47.730469 50.578125 42.050781 C 51.441406 40.914062 53.195312 40.320312 54.28125 41.527344 C 58.675781 46.332031 62.742188 51.4375 67.085938 56.296875 C 67.972656 57.472656 69.824219 57.886719 70.828125 56.609375 C 75.375 51.738281 79.378906 46.378906 83.945312 41.53125 C 85.195312 40.160156 87.050781 41.128906 87.960938 42.363281 C 93.433594 48.8125 98.996094 55.183594 104.476562 61.632812 C 105.363281 62.585938 106.265625 63.90625 107.765625 63.683594 C 116.0625 63.761719 124.371094 63.671875 132.671875 63.710938 C 134.101562 63.570312 135.828125 64.40625 135.691406 66.074219 C 136.210938 78.289062 133.394531 90.8125 126.910156 101.242188 C 120.519531 112.492188 110.820312 121.828125 99.335938 127.78125 C 90.113281 132.675781 79.667969 135.085938 69.25 135.070312 L 68.917969 135.070312 C 44.765625 135.4375 21.457031 121.003906 10.222656 99.742188 C 9.34375 97.792969 7.585938 95.632812 8.59375 93.410156 C 9.789062 92.125 11.648438 92.46875 13.210938 92.40625 C 18.335938 92.488281 23.460938 92.339844 28.578125 92.460938 C 30.441406 92.410156 31.105469 94.5 32.109375 95.703125 C 38.003906 103.640625 46.484375 109.71875 56 112.484375 C 65.066406 115.203125 74.964844 115.003906 83.925781 111.957031 C 95.25 108.171875 104.847656 99.679688 110.226562 89.042969 C 111.285156 87.535156 110.160156 85.316406 108.378906 85.144531 C 105.402344 84.871094 102.402344 85.183594 99.414062 85.050781 C 98.640625 84.992188 97.726562 85.042969 97.175781 84.378906 C 95.019531 82.230469 93.160156 79.800781 91.136719 77.527344 C 89.335938 75.539062 87.910156 73.066406 85.382812 71.910156 C 82.726562 73.667969 80.96875 76.375 78.882812 78.710938 C 76.179688 81.785156 73.644531 85 70.867188 87.996094 C 69.984375 89.0625 68.214844 89.039062 67.355469 87.964844 C 62.46875 82.753906 58.316406 76.851562 53.113281 71.949219 C 50.585938 72.617188 49.289062 75.039062 47.628906 76.84375 C 45.425781 79.328125 43.398438 81.988281 41.09375 84.382812 C 40.367188 85.222656 39.140625 84.960938 38.167969 85.0625 C 28.144531 85.054688 18.109375 85.085938 8.078125 85.09375 C 7.050781 85.054688 5.984375 85.085938 5.011719 84.699219 C 4.125 83.820312 3.941406 82.53125 3.671875 81.367188 C 3.015625 77.890625 2.605469 74.371094 2.375 70.84375 L 2.375 66.253906 C 2.929688 47.917969 11.339844 29.976562 25.230469 17.976562 Z M 25.230469 17.976562 "/>
</g>
</svg>
