<svg xmlns="http://www.w3.org/2000/svg" viewBox="0 0 389.94 128.7"><defs><style>.a{fill:#e20a17;}</style></defs><path class="a" d="M120.83,2.2C129.57-.22,138.67.26,147.63,0c14.78.66,29.38,3.34,43.9,6.07,27.47,4.47,54.79,9.79,82.3,14.06-8.42.17-16.78-.8-25.14-1.55-24.3-2.09-48.74-1.15-73,.59a80.48,80.48,0,0,0-26.25,8,228.86,228.86,0,0,0-65.3,41.82c-2.29,2.64-6.08,4.56-6.33,8.42a423.84,423.84,0,0,1,80.6-28.28A534.11,534.11,0,0,1,259.74,33c19.72-1.26,39.55-2.16,59.29-.62,23.87.9,47.75,3.74,70.91,9.69-7.08.43-14.17-.48-21.26-.4-24.84.22-49.7,1.75-74.24,5.7C260.12,52.91,226.26,61,192.78,70.39,165.67,77.45,139.3,87,113.1,96.83c-14.53,5.07-28,12.64-42.37,18.15-16.39,6.46-33.17,13.42-51.06,13.72-6-.25-13-1.28-17-6.38C-2,115.18.18,106,3.86,99c8.2-13.17,17.29-25.9,28.31-36.87a377,377,0,0,1,50.1-41.86C94.17,12.43,107.07,6,120.83,2.2Z"/></svg>