<?xml version="1.0" encoding="UTF-8" standalone="no"?>
<svg xmlns="http://www.w3.org/2000/svg" version="1.1" width="343.851" height="162.118" viewBox="0 0 343.851 162.118">
	<path fill="#e00000" d="M145.369,161.615c-39.49-3.491-68.1151-10.502-95.0939-23.291-31.5321-14.947-48.9686-34.087-50.1999-55.1046-1.18391-20.2089,11.6109-38.5632,38.2935-54.9326,18.1085-11.1093,48.8159-21.912,70.8223-24.915,14.8603-2.0278,14.253-2.22683,24.5864,8.05748,14.6167,14.5473,21.0848,24.8895,24.8624,39.7535,1.44478,5.68493,1.68609,12.6337,1.70584,49.1216l0.023,42.5h-14-14l-0.55346-40c-0.4799-34.6843-0.79083-40.7309-2.33973-45.5-4.02203-12.3839-11.5206-23.9891-21.5585-33.365-4.8812-4.55928-5.45715-4.82524-9.16522-4.2323-5.49968,0.87944-22.4365,8.48867-31.5825,14.1891-9.19637,5.73185-19.9437,15.6569-24.6788,22.7908-8.66866,13.0599-9.94694,28.0391-3.52065,41.2557,4.43082,9.11268,17.3263,22.0036,28.6827,28.6726,33.2508,19.5264,80.957,28.0383,130.216,23.2338,51.5215-5.0252,93.5218-25.5879,106.691-52.2344,3.13399-6.34119,3.73904-8.67636,4.11779-15.8925,0.36787-7.00889,0.0586-9.52696-1.80411-14.6884-4.12096-11.4191-12.9332-21.8526-25.8863-30.6489-11.317-7.68522-34.9238-18.0805-41.0593-18.0805-1.86132,0-4.10161,1.53105-7.68199,5.25-11.3403,11.7792-17.1024,21.0618-20.3167,32.7299-1.92085,6.97267-2.06058,10.1768-2.06058,47.25v39.7701h-13.8692-15.127c-0.003-16.5522,0.0177-32.236,0.007-45.7922-0.009-31.1217,0.28653-39.7355,1.57791-46,1.76043-8.53979,6.45982-19.5042,11.5219-26.8825,3.59185-5.23531,20.309-22.9445,23.0378-24.4049,2.9319-1.56911,33.5998,5.34594,54.3514,12.2552,11.2397,3.74229,30.7711,13.0415,40,19.0447,15.432,10.0381,26.8194,23.4361,30.6567,36.0697,13.4429,44.2578-48.7454,85.529-141.157,93.6786-10.6398,0.93831-46.2686,1.15753-55.5,0.34148z"/>
</svg>
