<?xml version="1.0" encoding="UTF-8" standalone="no"?>
<svg xmlns="http://www.w3.org/2000/svg" version="1.1" width="44.9053" height="52.8715" viewBox="0 0 44.9053 52.8715">
    <path stroke-linejoin="round" d="m9.19924,11.96954c-2.19709-4.6233-5.26356-8.60635-9.19943-11.9492l9.84642-0.0202c3.30236,3.26193,5.87012,7.01583,7.70326,11.2617,1.88706,4.39416,2.85081,8.99724,2.89125,13.8092v27.8005h-7.82457v-25.718c0-5.33769-1.13898-10.3991-3.41693-15.1841zm15.265,40.9021,0-27.8005c0.0404-4.81201,1.00419-9.41509,2.89125-13.8092,1.83315-4.24589,4.40089-7.9998,7.70326-11.2617l9.84642,0.0202c-3.93588,3.3428-7.00235,7.32585-9.19943,11.9492-2.27795,4.79853-3.41693,9.8599-3.41693,15.1841v25.718h-7.82457z" stroke-linecap="round" fill="#be1120"/>
</svg>
