<?xml version="1.0" encoding="UTF-8"?>
<svg xmlns="http://www.w3.org/2000/svg" xmlns:xlink="http://www.w3.org/1999/xlink" width="252pt" height="252pt" viewBox="0 0 252 252" version="1.1">
<g id="surface1">
<path style=" stroke:none;fill-rule:nonzero;fill:rgb(7.45098%,62.745098%,20.392157%);fill-opacity:1;" d="M 141.257812 16.898438 L 169.734375 16.898438 L 169.734375 232.625 L 141.257812 232.625 Z M 141.257812 16.898438 "/>
<path style=" stroke:none;fill-rule:nonzero;fill:rgb(7.45098%,62.745098%,20.392157%);fill-opacity:1;" d="M 90.191406 16.898438 L 118.972656 16.898438 L 118.972656 232.625 L 90.191406 232.625 Z M 90.191406 16.898438 "/>
<path style=" stroke:none;fill-rule:nonzero;fill:rgb(7.45098%,62.745098%,20.392157%);fill-opacity:1;" d="M 24.761719 16.898438 C 24.761719 17.394531 24.761719 17.953125 24.761719 18.382812 C 24.761719 74.097656 71.867188 119.46875 130.054688 119.46875 C 188.242188 119.46875 235.472656 74.097656 235.472656 18.382812 C 235.472656 17.890625 235.472656 17.332031 235.472656 16.898438 L 198.578125 16.898438 C 198.578125 17.394531 198.578125 17.953125 198.578125 18.382812 C 198.578125 54.597656 167.8125 83.875 130.054688 83.875 C 92.292969 83.875 61.714844 54.535156 61.714844 18.382812 C 61.714844 17.890625 61.714844 17.332031 61.714844 16.898438 C 61.714844 16.898438 24.761719 16.898438 24.761719 16.898438 Z M 24.761719 16.898438 "/>
<path style=" stroke:none;fill-rule:nonzero;fill:rgb(7.45098%,62.745098%,20.392157%);fill-opacity:1;" d="M 235.472656 232.5625 C 235.472656 232.066406 235.472656 231.511719 235.472656 231.078125 C 235.472656 175.304688 188.425781 129.992188 130.179688 129.992188 C 71.929688 129.992188 24.761719 175.304688 24.761719 231.078125 C 24.761719 231.574219 24.761719 232.128906 24.761719 232.5625 L 61.652344 232.5625 C 61.652344 232.066406 61.652344 231.511719 61.652344 231.078125 C 61.652344 194.863281 92.417969 165.585938 130.179688 165.585938 C 167.9375 165.585938 198.515625 194.863281 198.515625 231.078125 C 198.515625 231.574219 198.515625 232.128906 198.515625 232.5625 Z M 235.472656 232.5625 "/>
</g>
</svg>
