<?xml version="1.0"?>
<svg xmlns="http://www.w3.org/2000/svg" id="&#x56FE;&#x5C42;_1" data-name="&#x56FE;&#x5C42; 1" viewBox="0 0 247.78 210.05">
  <defs>
    <style>.cls-1{fill:#009543;}</style>
  </defs>
  <g id="surface1">
    <path class="cls-1" d="M118.11,0l-1.33.14V3.25A232.16,232.16,0,0,1,111.86,46c-1.25,5.27-2.29,9.46-2.85,11.25l-1.58,5.26c-.52,1.74-1.19,3.88-1.49,4.73a39.15,39.15,0,0,1-2.31,6.2,1.1,1.1,0,0,0-.24.68c0,1.69-7.91,18.42-12.86,27.38A215.37,215.37,0,0,1,41,159.87c-1.58,1.28-4.08,3.34-5.26,4.34-1.43,1.23-.21,1,4.11-.75a175.89,175.89,0,0,1,39.23-10.2q5.82-1.08,11.73-1.58c1.36,0,1.72-.28,3.78-2.79.87-1.07,1.66-2,1.77-2.11,2.55-2.35,13.56-18.48,18.86-27.6,2.67-4.59,8.93-17.06,10.59-21.07.72-1.74,1.66-3.94,2.11-4.92,1.44-3.15,4.64-11.72,6.44-17.24,1.58-5,2.09-6.49,2.85-9.3a245.54,245.54,0,0,0,6.33-29,188.93,188.93,0,0,0,2.88-25.2c.48-7.89.44-12.3-.09-12.32C144,0,119.11,0,118.11,0Z" transform="translate(-0.14 0)"/>
    <path class="cls-1" d="M143.13,56.77c-1.17,3.6-3.16,9.86-4.46,14.5-.57,1.92-1.58,5.33-2.33,7.55s-1.58,5-1.93,6.15-1.11,3.47-1.58,5.13l-1,3,.68,1.72a193.93,193.93,0,0,0,9.62,20.93c.41.68.86,1.47,1,1.75,1.22,2.65,9.32,15.41,13.74,21.61a226.13,226.13,0,0,0,38,39.8c7.57,6.18,22.79,17,25.23,17.92a29.52,29.52,0,0,1,2.88,1.67c3.8,2.43,13.56,7.33,14.15,7.11a34.33,34.33,0,0,0,3.29-6.12c1.58-3.25,3.29-7,3.94-8.34a18.46,18.46,0,0,0,1.19-2.78,47.3,47.3,0,0,1,2.21-5.44c.4-.85.21-1.23-1.09-2-.38-.22-1.06-.65-1.59-1s-3.44-2.19-6.64-4.2c-6.76-4.21-18.23-12.08-22.57-15.44l-4.75-3.66c-1-.72-2.31-1.82-3-2.42s-2.34-2-3.7-3.16c-18.77-15.77-35.13-39.31-48.27-69.25l-2.49-5.64c-1.5-3.41-3.3-7.76-5.87-14.2-2-5-3.35-8.07-3.61-8.07a27.58,27.58,0,0,0-1,2.8" transform="translate(-0.14 0)"/>
    <path class="cls-1" d="M118,152c-8.74.54-19.48,1.58-24.68,2.42-4.52.72-15.39,2.76-18.86,3.53l-3.88.85c-1.46.32-4.15,1-6,1.47l-5.82,1.57c-1.36.37-3.58,1-4.94,1.41l-3.7,1.1c-2.07.62-14.58,4.86-15.34,5.21-.39.17-2.77,1.12-5.28,2.1s-4.91,1.9-5.29,2.07l-1.93.84c-1.39.6-3.32,1.47-9.16,4.12-3.64,1.65-12.67,6.18-13,6.51a6,6,0,0,0,1.3,2.68A62.93,62.93,0,0,1,6,194.64l3,4.73,2.21,3.49a48.29,48.29,0,0,0,4.91,7.19,26.44,26.44,0,0,0,5.54-2.33c25.24-12.62,46.94-19.31,75.74-23.45a262.51,262.51,0,0,1,34.09-2c9.23.41,17.84.93,20.91,1.29,7.84.91,9.72,1.17,15,2,3.17.48,6.33,1,7.22,1.17l3.88.71c1.26.22,2.92.53,3.7.71l3.87.83c4.39,1,9.07,2,13.32,3.16,6.09,1.57,6.18,1.41,2-2.18l-5.65-4.87c-5-4.34-14.86-13.74-23.52-22.38-6.68-6.7-8.37-8.22-9.33-8.36A230.88,230.88,0,0,0,118,152.06" transform="translate(-0.14 0)"/>
  </g>
</svg>
