<?xml version="1.0" encoding="UTF-8" standalone="no"?>
<svg
   xmlns:dc="http://purl.org/dc/elements/1.1/"
   xmlns:cc="http://creativecommons.org/ns#"
   xmlns:rdf="http://www.w3.org/1999/02/22-rdf-syntax-ns#"
   xmlns:svg="http://www.w3.org/2000/svg"
   xmlns="http://www.w3.org/2000/svg"
   viewBox="0 0 870.66669 869.33331"
   height="869.33331"
   width="870.66669"
   xml:space="preserve"
   id="svg2"
   version="1.1"><metadata
     id="metadata8"><rdf:RDF><cc:Work
         rdf:about=""><dc:format>image/svg+xml</dc:format><dc:type
           rdf:resource="http://purl.org/dc/dcmitype/StillImage" /></cc:Work></rdf:RDF></metadata><defs
     id="defs6" /><g
     transform="matrix(1.3333333,0,0,-1.3333333,0,869.33333)"
     id="g10"><g
       transform="scale(0.1)"
       id="g12"><path
         id="path14"
         style="fill:#ff0000;fill-opacity:1;fill-rule:nonzero;stroke:none"
         d="M 3588.24,6516.13 C 5208.09,6298.95 6382.54,5235.2 6513.63,3537.15 6645.39,1825.82 5683.2,813.09 4527.46,236.129 c 14.06,1107.311 88.71,2429.931 -26.68,3488.991 -125.66,118.67 -436.72,99.69 -536.87,-26.92 -61.57,-698.63 -9.61,-1511.29 -26.72,-2254.37 h -993.05 c -112.81,708.48 345.47,2846.05 -536.68,2308.2 -75.35,-647.15 19.88,-1697.34 -53.59,-2173.83 H 1307.23 V 5201.25 C 753.91,4806.17 550.039,4041.76 475.16,3322.54 c -1.879,-17.54 -0.238,-36.06 0,-53.59 C 480.078,1586.84 1973.55,95.6992 3937.19,558.441 4018.2,414.262 3919.88,218.59 3937.19,48.1992 1735.04,-224.219 197.34,984.84 18.75,2893.32 c -173.16,1852.03 871.602,3037.93 2334.88,3488.71 5.39,-497.34 67.89,-1187.54 0,-1583.32 352.03,79.81 889.61,-12.89 1073.83,-268.48 509.06,487.54 1454.61,272.66 1824.65,-161.01 488.91,-572.74 221.41,-1659.41 322.03,-2657.15 302.42,429.22 521.25,1207.46 456.41,1959.45 C 5899.96,5187.93 4508.98,6108.91 2917.23,6060 v 429.45 c 64.14,16.37 518.86,26.68 671.01,26.68 z" /></g></g></svg>