<?xml version="1.0" encoding="utf-8"?>
<!-- Generator: Adobe Illustrator 23.1.0, SVG Export Plug-In . SVG Version: 6.00 Build 0)  -->
<svg version="1.1" id="图层_1" xmlns="http://www.w3.org/2000/svg" xmlns:xlink="http://www.w3.org/1999/xlink" x="0px" y="0px"
	 viewBox="0 0 836 268.1" style="enable-background:new 0 0 836 268.1;" xml:space="preserve">
<style type="text/css">
	.st0{fill-rule:evenodd;clip-rule:evenodd;fill:#007848;}
</style>
<path class="st0" d="M720.8,35.2H563.1c-1.7,0-2.7,0.5-3.6,1.9C518.7,96,477.8,154.7,436.9,213.6c-4.1,6-8.3,11.9-12.5,18.1
	c0.9,0,1.3,0.1,1.8,0.1h109.3c1.3,0,1.9-0.4,2.7-1.5l63.5-98.5c0.9-1.2,1.7-1.8,3.2-1.7c13.6,0.1,27.1,0,40.7,0.1
	c1.1,0,1.9-0.2,2.7-1.2c4.4-5.6,8.9-11.2,13.3-16.7c19.1-23.8,38.2-47.7,57.2-71.5c1.3-1.7,2.7-3.4,4.3-5.4
	C722.2,35.2,721.6,35.2,720.8,35.2L720.8,35.2z M279.9,126.5c3.6-5.5,7.2-10.8,10.8-16.3c0.7-1.1,1.5-1.5,2.7-1.5h60.1
	c1.2,0,1.9-0.4,2.7-1.3c15.3-20.7,30.8-41.4,46.2-62c2.6-3.4,5-6.8,7.7-10.5H238.3c-1.1,0-1.7,0.4-2.3,1.2
	C195.5,91,155,145.7,114.5,200.6c-1.7,2.3-3.5,4.7-4.5,7.3c-1.8,4.9-1.2,9.7,0.7,14.5c2.4,5.8,6.2,9.2,13.9,9.2
	c58.4-0.1,116.8-0.1,175.1-0.1h2.3V127.8h-23.1C279.4,127.5,279.7,127,279.9,126.5L279.9,126.5z M276.3,82.8
	c-15,21.8-29.8,43.4-44.8,65.1c-0.2,0.2-0.4,0.6-0.7,1.2h44c0,0.7,0.1,1.2,0.1,1.8c0,16.4,0,33,0.1,49.4c0,1.6-0.4,1.9-1.9,1.9
	c-40.5-0.1-80.9-0.1-121.4-0.1c-0.5,0-1.1-0.1-1.9-0.1c2.2-3,4.3-5.7,6.3-8.5c32.8-44,65.7-88.2,98.6-132.2c0.7-1,1.5-1.3,2.7-1.3
	c29.2,0,58.4,0.1,87.7,0.1c0.6,0,1.2,0,2.1,0.1c-1.6,2.3-3,4.4-4.5,6.4c-3.2,4.5-6.4,9-9.6,13.6c-0.7,1.1-1.5,1.5-2.8,1.5h-51.8
	C277.6,81.9,276.9,82,276.3,82.8L276.3,82.8z"/>
<path class="st0" d="M470.4,128.8C491.6,98,512.8,67.3,534,36.6c0.2-0.4,0.5-0.9,0.9-1.5h-99.7c-1.2,0-1.8,0.5-2.4,1.3
	c-21.2,30.2-42.4,60.2-63.7,90.4c-0.7,1-1.5,1.5-2.7,1.5h-46.7v103.5h1.9c29.6,0,59-0.1,88.5-0.1c2.2,0,2.2,0,2.2-2.3
	c0-32.4,0-64.8-0.1-97.2c0-2.2,0-2.2,2.2-2.2h53.4C468.9,130,469.8,129.8,470.4,128.8L470.4,128.8z"/>
</svg>
