<svg version="1.1" xmlns="http://www.w3.org/2000/svg" fill-rule="evenodd" clip-rule="evenodd" height="995" width="1024" viewBox="0 0 1053 1024"><path d="M526.5499 0.091621C400.594305 0.091621 298.498075 102.182929 298.498075 228.118838c-119.774208-38.914191-248.352955 26.708905-287.267145 146.483113-38.919112 119.803737 26.551418 248.352955 146.325625 287.28191-74.024073 101.884606-51.419687 244.479745 50.469841 318.50874 101.884606 74.024073 244.479745 51.419687 318.508739-50.469841 74.024073 101.884606 216.771778 124.493913 318.661306 50.469841 101.884606-74.024073 124.341347-216.614291 50.317274-318.50874 119.774208-38.919112 185.397304-167.497859 146.483113-287.272067-38.928955-119.833266-167.625818-185.456362-287.41479-146.542171 0-125.935909-102.071622-228.027217-228.061667-228.027217z" fill="#DE0010"></path><path d="M475.602675 180.887336v90.161626c-152.295388 24.40565-268.649163 156.385143-268.649163 315.580455 0 105.103258 50.6667 198.36542 128.942936 256.65058l60.93292-82.011645c-53.294773-39.642571-87.700883-103.100213-87.700883-174.638935 0-102.598221 70.962909-188.615956 166.479112-211.569768v399.747711h102.012564V375.059649c95.516203 23.003026 166.636599 109.025682 166.636599 211.569768 0 71.543644-34.519304 134.996365-87.85837 174.638935l60.809882 82.080546c78.32053-58.280239 129.095503-151.542401 129.095503-256.65058 0-159.146097-116.40299-291.115748-268.649163-315.580456V180.971001H475.612518z" fill="#FFFFFF"></path></svg>