<?xml version="1.0" encoding="UTF-8" standalone="no"?>
<svg
   xmlns:dc="http://purl.org/dc/elements/1.1/"
   xmlns:cc="http://creativecommons.org/ns#"
   xmlns:rdf="http://www.w3.org/1999/02/22-rdf-syntax-ns#"
   xmlns:svg="http://www.w3.org/2000/svg"
   xmlns="http://www.w3.org/2000/svg"
   xmlns:xlink="http://www.w3.org/1999/xlink"
   xmlns:sodipodi="http://sodipodi.sourceforge.net/DTD/sodipodi-0.dtd"
   xmlns:inkscape="http://www.inkscape.org/namespaces/inkscape"
   width="315"
   height="176"
   viewBox="0 0 252 140.8"
   version="1.1"
   id="svg2"
   inkscape:version="0.48.2 r9819"
   sodipodi:docname="Suzhou Rail Transit.svg">
  <metadata
     id="metadata167">
    <rdf:RDF>
      <cc:Work
         rdf:about="">
        <dc:format>image/svg+xml</dc:format>
        <dc:type
           rdf:resource="http://purl.org/dc/dcmitype/StillImage" />
      </cc:Work>
    </rdf:RDF>
  </metadata>
  <defs
     id="defs165">
    <linearGradient
       inkscape:collect="always"
       id="linearGradient3983">
      <stop
         style="stop-color:#ff0000;stop-opacity:1;"
         offset="0"
         id="stop3985" />
      <stop
         style="stop-color:#ff0000;stop-opacity:0;"
         offset="1"
         id="stop3987" />
    </linearGradient>
    <linearGradient
       inkscape:collect="always"
       id="linearGradient3975">
      <stop
         style="stop-color:#ff0000;stop-opacity:1;"
         offset="0"
         id="stop3977" />
      <stop
         style="stop-color:#ff0000;stop-opacity:0;"
         offset="1"
         id="stop3979" />
    </linearGradient>
    <linearGradient
       id="linearGradient3933">
      <stop
         style="stop-color:#14027c;stop-opacity:1;"
         offset="0"
         id="stop3935" />
      <stop
         style="stop-color:#14027c;stop-opacity:0;"
         offset="1"
         id="stop3937" />
    </linearGradient>
    <linearGradient
       inkscape:collect="always"
       xlink:href="#linearGradient3933"
       id="linearGradient3939"
       x1="782.01227"
       y1="251.81709"
       x2="1117.756"
       y2="249.73174"
       gradientUnits="userSpaceOnUse"
       gradientTransform="matrix(0.19965781,0,0,0.19965781,0.42865758,0.79122)" />
    <linearGradient
       inkscape:collect="always"
       xlink:href="#linearGradient3933-4"
       id="linearGradient3939-7"
       x1="782.01227"
       y1="251.81709"
       x2="1161.5487"
       y2="247.64636"
       gradientUnits="userSpaceOnUse" />
    <linearGradient
       id="linearGradient3933-4">
      <stop
         style="stop-color:#14027c;stop-opacity:1;"
         offset="0"
         id="stop3935-0" />
      <stop
         style="stop-color:#14027c;stop-opacity:0;"
         offset="1"
         id="stop3937-9" />
    </linearGradient>
    <linearGradient
       inkscape:collect="always"
       xlink:href="#linearGradient3975"
       id="linearGradient3981"
       x1="826.55212"
       y1="458.26831"
       x2="1946.9843"
       y2="458.26831"
       gradientUnits="userSpaceOnUse" />
    <linearGradient
       inkscape:collect="always"
       xlink:href="#linearGradient3983"
       id="linearGradient3989"
       x1="426.79117"
       y1="449.9812"
       x2="135.43059"
       y2="449.9812"
       gradientUnits="userSpaceOnUse"
       gradientTransform="matrix(0.19965781,0,0,0.19965781,0.42865758,0.79122)" />
  </defs>
  <sodipodi:namedview
     pagecolor="#ffffff"
     bordercolor="#666666"
     borderopacity="1"
     objecttolerance="10"
     gridtolerance="10"
     guidetolerance="10"
     inkscape:pageopacity="0"
     inkscape:pageshadow="2"
     inkscape:window-width="1366"
     inkscape:window-height="706"
     id="namedview163"
     showgrid="false"
     inkscape:zoom="3.069006"
     inkscape:cx="207.32644"
     inkscape:cy="130.94251"
     inkscape:window-x="-8"
     inkscape:window-y="-8"
     inkscape:window-maximized="1"
     inkscape:current-layer="svg2" />
  <g
     id="#1b077eff"
     transform="translate(0,-555.2)" />
  <g
     id="#240e84ff"
     transform="translate(0,-555.2)" />
  <g
     id="#2e1787ff"
     transform="translate(0,-555.2)" />
  <g
     id="#3a228cff"
     transform="translate(0,-555.2)" />
  <g
     id="#482e93ff"
     transform="translate(0,-555.2)" />
  <g
     id="#543a98ff"
     transform="translate(0,-555.2)" />
  <g
     id="#60479fff"
     transform="translate(0,-555.2)" />
  <g
     id="#6e54a4ff"
     transform="translate(0,-555.2)" />
  <g
     id="#7b63acff"
     transform="translate(0,-555.2)" />
  <g
     id="#8a73b5ff"
     transform="translate(0,-555.2)" />
  <g
     id="#9882bdff"
     transform="translate(0,-555.2)" />
  <g
     id="#a490c4ff"
     transform="translate(0,-555.2)" />
  <g
     id="#b09dccff"
     transform="translate(0,-555.2)" />
  <g
     id="#bcabd4ff"
     transform="translate(0,-555.2)" />
  <g
     id="#cbbfddff"
     transform="translate(0,-555.2)" />
  <g
     id="#dbd1e6ff"
     transform="translate(0,-555.2)" />
  <g
     id="#e5ddedff"
     transform="translate(0,-555.2)" />
  <g
     id="#eeeaf4ff"
     transform="translate(0,-555.2)" />
  <g
     id="#14027cff"
     transform="translate(0,-555.2)" />
  <g
     id="#fc0404ff"
     transform="translate(0,-555.2)" />
  <g
     id="#fc0b05ff"
     transform="translate(0,-555.2)" />
  <g
     id="#fc160dff"
     transform="translate(0,-555.2)" />
  <g
     id="#fc2011ff"
     transform="translate(0,-555.2)" />
  <g
     id="#2b1686ff"
     transform="translate(0,-555.2)" />
  <g
     id="#fc2213ff"
     transform="translate(0,-555.2)" />
  <g
     id="#fcf0e8ff"
     transform="translate(0,-555.2)" />
  <g
     id="#fce4d7ff"
     transform="translate(0,-555.2)" />
  <g
     id="#fcd8c6ff"
     transform="translate(0,-555.2)" />
  <g
     id="#fcc9b4ff"
     transform="translate(0,-555.2)" />
  <g
     id="#fcb69bff"
     transform="translate(0,-555.2)" />
  <g
     id="#fcaa8cff"
     transform="translate(0,-555.2)" />
  <g
     id="#fc9d7dff"
     transform="translate(0,-555.2)" />
  <g
     id="#fc8d6cff"
     transform="translate(0,-555.2)" />
  <g
     id="#fc7f5fff"
     transform="translate(0,-555.2)" />
  <g
     id="#fc7454ff"
     transform="translate(0,-555.2)" />
  <g
     id="#fc6848ff"
     transform="translate(0,-555.2)" />
  <g
     id="#fc5e40ff"
     transform="translate(0,-555.2)" />
  <g
     id="#fc5234ff"
     transform="translate(0,-555.2)" />
  <g
     id="#fc442aff"
     transform="translate(0,-555.2)" />
  <g
     id="#fc3821ff"
     transform="translate(0,-555.2)" />
  <g
     id="#fc2e1bff"
     transform="translate(0,-555.2)" />
  <path
     style="fill:url(#linearGradient3939);fill-opacity:1;stroke:none"
     d="M 9.5413556,98.71807 C 6.0095606,97.88065 3.3514804,96.57731 1.9009246,94.97172 0.55506115,93.48202 0.41161899,93.09197 0.41455402,90.93001 0.41868502,87.88346 1.5584135,83.19398 3.3023427,79.04796 6.5015315,71.44221 17.451116,56.63378 26.610359,47.52574 47.51641,26.73656 79.478961,9.04813 105.95846,3.61362 118.29471,1.08179 115.93424,1.17453 172.32428,1.00611 l 51.79325,-0.1547 -0.17633,18.77823 c 0,0 -20.45708,0.31149 -44.42567,0.43775 -41.88642,0.22067 -43.78944,0.264 -48.99186,1.11562 -9.53603,1.56105 -16.73578,3.39834 -24.31178,6.20414 -5.36798,1.98804 -14.756871,6.53259 -19.614155,9.49393 -11.654234,7.10522 -22.665582,17.42433 -27.627629,25.89076 -1.800806,3.38425 -3.335737,6.64894 -2.572951,10.26641 0.343036,1.62564 2.934296,4.34852 5.259771,5.52692 1.081968,0.54828 3.338435,1.37686 5.014364,1.84128 2.964502,0.8215 4.140401,0.84441 43.35605,0.84441 l 40.30891,0 -1.16275,1.47091 c -1.51891,1.92147 -6.69708,6.2301 -10.11448,8.416 -5.48779,3.5102 -12.58684,6.22331 -19.31115,7.38031 -3.19322,0.54944 -10.86161,0.63053 -56.20854,0.59442 C 34.658361,99.0894 10.359272,98.912 9.5413556,98.71807 z"
     id="path3145"
     inkscape:connector-curvature="0"
     sodipodi:nodetypes="sssssssccssssccssscsssss" />
  <path
     style="fill:url(#linearGradient3989);fill-opacity:1;stroke:none"
     d="m 241.51033,41.90105 c 3.53177,0.8374 6.18987,2.14076 7.64042,3.74635 1.34585,1.48971 1.4893,1.87975 1.48637,4.04169 -0.005,3.04656 -1.14387,7.73606 -2.8878,11.88206 -3.19919,7.60575 -14.14876,22.41419 -23.30801,31.52223 -20.90605,20.78917 -52.86858,38.47762 -79.34808,43.91212 -12.33626,2.53182 -9.97578,2.43908 -66.365831,2.60752 l -51.793249,0.1547 0.176338,-18.77825 c 0,0 20.457101,-0.31148 44.425655,-0.43775 41.886427,-0.22066 43.789447,-0.26399 48.991877,-1.11563 9.53602,-1.56102 16.73577,-3.39833 24.31177,-6.20413 5.36797,-1.98803 14.75687,-6.5326 19.61415,-9.49391 11.65424,-7.10524 22.66559,-17.42434 27.62763,-25.89078 1.80082,-3.38426 3.33575,-6.64893 2.57295,-10.26641 -0.34303,-1.62563 -2.93429,-4.34852 -5.25977,-5.52693 -1.08197,-0.54827 -3.33842,-1.37684 -5.01436,-1.84128 -2.9645,-0.82149 -4.14039,-0.8444 -43.35605,-0.8444 l -40.3089,0 1.16274,-1.4709 c 1.5189,-1.92148 6.69708,-6.23012 10.11448,-8.416 5.48778,-3.51021 12.58683,-6.22333 19.31114,-7.38032 3.19323,-0.54944 10.86162,-0.63053 56.20855,-0.59441 28.88097,0.0231 53.18006,0.20049 53.99798,0.39443 z"
     id="path3145-1"
     inkscape:connector-curvature="0"
     sodipodi:nodetypes="sscssssccssssccssscsssss" />
</svg>
